<svg class="mx-auto" width="150" height="150" viewBox="0 0 210 210" fill="none" xmlns="http://www.w3.org/2000/svg">
    <circle cx="105" cy="105" r="105" fill="#E21D4D"/>
    <path d="M188.296 104.783C188.296 150.591 151.026 187.861 105.217 187.861H105.17L101.957 183.198L105.17 174.817H105.217C143.835 174.817 175.252 143.4 175.252 104.783C175.252 66.1652 143.835 34.7478 105.217 34.7478H105.17L99.7161 29.4661L105.17 21.7043H105.217C151.026 21.7043 188.296 58.9739 188.296 104.783V104.783Z" fill="#FCFCFC"/>
    <path d="M105.17 34.7478V21.7043C59.3826 21.7304 22.1391 58.9913 22.1391 104.783C22.1391 150.574 59.3826 187.835 105.17 187.861V174.817C66.5739 174.791 35.1826 143.383 35.1826 104.783C35.1826 66.1826 66.5739 34.7739 105.17 34.7478Z" fill="#FCFCFC"/>
    <rect x="73.913" y="83.3163" width="13.913" height="74.7826" transform="rotate(-45 73.913 83.3163)" fill="#FCFCFC"/>
    <rect x="126.792" y="73.4783" width="13.913" height="74.7826" transform="rotate(45 126.792 73.4783)" fill="#FCFCFC"/>
</svg>